<?xml version="1.0" encoding="UTF-8" standalone="no"?>
<svg
   xmlns:dc="http://purl.org/dc/elements/1.1/"
   xmlns:cc="http://creativecommons.org/ns#"
   xmlns:rdf="http://www.w3.org/1999/02/22-rdf-syntax-ns#"
   xmlns:svg="http://www.w3.org/2000/svg"
   xmlns="http://www.w3.org/2000/svg"
   xmlns:sodipodi="http://sodipodi.sourceforge.net/DTD/sodipodi-0.dtd"
   xmlns:inkscape="http://www.inkscape.org/namespaces/inkscape"
   width="210mm"
   height="297mm"
   viewBox="0 0 210 297"
   version="1.1"
   id="svg8"
   inkscape:version="1.0.2 (e86c870879, 2021-01-15, custom)"
   sodipodi:docname="Interstellar.svg">
  <defs
     id="defs2" />
  <sodipodi:namedview
     id="base"
     pagecolor="#ffffff"
     bordercolor="#666666"
     borderopacity="1.0"
     inkscape:pageopacity="0.0"
     inkscape:pageshadow="2"
     inkscape:zoom="0.7"
     inkscape:cx="889.28666"
     inkscape:cy="451.28531"
     inkscape:document-units="mm"
     inkscape:current-layer="layer1"
     inkscape:document-rotation="0"
     showgrid="false"
     inkscape:window-width="1920"
     inkscape:window-height="1001"
     inkscape:window-x="-9"
     inkscape:window-y="-9"
     inkscape:window-maximized="1" />
  <metadata
     id="metadata5">
    <rdf:RDF>
      <cc:Work
         rdf:about="">
        <dc:format>image/svg+xml</dc:format>
        <dc:type
           rdf:resource="http://purl.org/dc/dcmitype/StillImage" />
        <dc:title></dc:title>
      </cc:Work>
    </rdf:RDF>
  </metadata>
  <g
     inkscape:label="Layer 1"
     inkscape:groupmode="layer"
     id="layer1">
    <path
       style="fill:none;stroke:#000000;stroke-width:0.264583px;stroke-linecap:butt;stroke-linejoin:miter;stroke-opacity:1"
       d="m 93.143429,242.81436 -3.608139,-0.33408 -3.741772,-0.0668 h -2.138156 l -4.142679,0.33409 -6.481286,-0.33409 -2.539061,0.0668 -2.739512,-0.13364 -3.875407,-1.06908 -2.071338,-0.80181 -1.937706,-1.46998 v -1.00226 l 0.734992,-1.06908 2.405425,-0.4009 5.078121,-0.26727 0.668174,-0.53454 1.069078,-0.80181 3.808592,-0.13363 1.937702,-0.93545 h 1.135896 l 0.534541,-2.80633 0.534537,-4.81085 1.469983,-11.22532 V 212.212 l 0.334087,-1.26953 v -3.40768 l 0.06682,-5.47903 -0.534541,-2.60588 0.133636,-5.47902 v -2.93997 l 0.734991,-1.80407 -0.133635,-0.86862 0.334086,-1.73725 0.267272,-1.26953 0.06682,-3.00679 0.06682,-1.73725 -0.400905,-0.46772 0.200454,-0.93544 -0.267269,-0.13364 -0.400905,0.80181 -2.939965,-2.87315 -1.269531,-1.26953 0.06682,-1.00226 -0.801809,-0.66817 -0.06682,-3.54132 0.801807,-1.73726 -0.601356,-0.26726 -0.334087,-1.33635 -0.267269,-3.94223 0.668174,-4.87767 0.06682,-0.86862 1.069078,-0.33409 v -1.87089 l 0.668173,-3.74177 0.734992,-3.27405 -0.334087,-4.54358 1.336347,-3.80859 1.670433,-4.47677 0.267272,-1.1359 -0.133636,-3.20723 -0.601356,-4.07586 0.133634,-3.0736 -0.133634,-0.66817 -1.002262,0.0668 -0.534538,-1.93771 0.334087,-2.00452 0.734991,-1.46998 0.334087,-2.07134 3.674956,-4.40995 0.467723,-2.13815 1.870884,-2.13816 1.002263,-1.1359 0.06682,-0.86862 1.269532,-1.26953 -0.467722,-3.60814 -0.534538,-3.541323 -0.668176,-1.5368 -2.271789,-1.737252 -1.870888,-0.868624 -0.801809,-1.069078 0.200454,-1.169305 1.135896,-0.701582 v -0.768401 l 0.267269,-0.334086 0.300677,-0.200451 -0.200453,-0.501132 0.233862,-0.501131 0.467723,-0.100224 0.300678,-0.534541 -0.668174,-0.634764 -0.133636,-0.567947 0.06682,-0.668176 0.400905,-0.400904 1.603616,-0.534538 1.570209,-0.501132 0.06682,-0.768397 0.400902,-0.534541 0.334089,-0.734991 -0.06682,-0.467722 0.501129,-0.267269 0.835218,-1.135896 0.768401,-0.835216 0.7684,-0.668176 0.46772,-0.534537 -0.06682,-0.384199 0.551244,-0.634767 h 0.634764 l 0.05011,-0.417608 0.53454,-0.217157 1.586913,-0.150339 0.88533,0.03341 1.937702,0.23386 1.57021,0.200454 2.104746,0.167042 0.30068,0.334086 0.63477,-0.100224 1.20271,0.634765 1.10248,0.267269 1.26954,1.069078 0.66817,0.200453 0.66817,0.935443 0.33409,0.23386 3.04019,-1.837479 2.10475,-1.169302 0.13363,-0.53454 1.77066,-0.367496 3.60814,-1.77066 -0.13363,-1.336347 -1.26953,-1.269532 -3.00679,-1.403165 -1.77066,-0.935442 -0.63476,-0.400905 -0.50113,-0.434313 -0.23386,-0.46772 -0.0334,-1.069081 0.36749,-0.968851 0.3675,-1.135896 -0.23386,-0.668173 -0.019,-0.658524 0.8977,-0.118118 0.61421,0.212611 0.8032,-0.212611 -0.66146,-0.803199 -0.44885,-0.354353 -0.54334,-0.47247 -0.0745,-0.26603 -0.0668,-0.400905 0.23386,-0.400904 0.40091,-0.334087 -0.13364,-0.601356 -0.4009,-0.367495 H 110.516 l -0.66817,-0.33409 -0.43432,-0.501128 0.23386,-0.902036 1.03567,-1.302938 1.1359,-1.169305 1.06907,-0.835216 0.50114,-0.668176 -0.13364,-0.567947 -0.20045,-0.300677 0.10022,-0.801809 0.43432,-0.300678 1.26953,-0.968852 0.90203,-1.403164 1.60362,-1.369759 0.51659,-0.235815 -0.42522,-0.283482 -0.42522,-1.27567 -0.0472,-0.803199 1.18117,-1.133927 1.55916,-0.377979 1.65364,0.425225 2.07887,-0.472471 1.03944,0.992187 1.55915,-0.614211 1.55915,0.283482 0.47247,0.566965 h 1.37017 l 0.28347,0.944941 1.22843,0.566965 h 1.27567 l 0.85045,0.992187 1.5119,0.755952 h 0.56696 l 0.56697,0.425223 -0.33073,0.850447 0.89769,0.377976 1.08669,1.228423 0.89769,1.133928 -0.33073,0.897694 -0.23624,0.944941 0.56697,0.236233 -0.14174,1.13393 -0.51972,0.897692 0.18899,1.322916 0.14174,1.559153 -0.51972,1.370163 -2.4096,3.685267 -3.49628,5.055434 0.66146,0.661458 v 0.614212 l 5.85863,3.96875 0.70871,0.803198 2.88206,1.322917 1.13393,0.661458 2.07887,0.472469 2.31511,1.27567 1.74814,1.795389 1.22842,1.133927 1.22842,1.889882 1.18118,3.118302 0.85044,3.590774 1.18118,3.543528 1.22842,5.008184 0.33073,1.55915 0.0472,3.16555 v 0.75595 l 1.74814,3.96875 0.37798,1.65365 0.56696,2.22061 0.14174,2.74033 0.99219,1.93713 -0.37798,3.68526 -0.14174,1.37017 1.74814,1.6064 -0.14174,1.18117 -1.13393,1.88988 -0.23623,2.26786 -0.70871,6.80357 -0.33073,3.02381 -0.28348,0.8032 -0.18899,1.32292 -0.42522,1.84263 -0.42523,1.27567 -0.23623,1.79539 v 0.85044 l -0.0472,1.22842 0.23624,0.99219 0.33073,0.85045 0.18898,1.32292 -0.28348,0.7087 -0.0472,1.5119 0.0472,1.6064 -1.21615,1.79481 -0.56794,0.33408 -0.13364,-0.0334 -0.50113,0.56794 -0.80181,0.16705 -1.30294,1.13589 -0.93544,0.43432 -0.56795,-0.10023 -0.86863,0.30068 -0.30067,-0.16704 -0.13364,-0.735 0.53454,-0.96885 0.63477,-0.83522 0.13363,-4.00904 -0.23386,-0.33409 -1.33635,0.16705 -0.23386,1.87088 -0.4009,1.20272 -0.83522,0.66817 -0.83522,0.13364 -0.46772,-0.23386 0.4009,-1.50339 0.33409,-2.83974 -0.3675,-1.16931 0.0668,-2.00452 0.43432,-0.93544 0.46772,-1.46999 v -2.40542 l 0.23386,-2.90656 0.20045,-3.14041 1.06908,-1.43658 -0.0668,-0.56795 -1.03567,-1.00226 -0.26727,-1.40316 0.40091,-1.87089 0.4009,-0.73499 0.20045,-0.73499 -0.60135,-1.00226 -1.20271,-1.1359 -0.10023,2.17157 -0.10023,2.33861 0.50113,3.24064 v 1.26953 l -3.04019,1.70384 1.43657,1.83748 0.63477,1.1359 -0.13363,1.57021 -0.43432,0.43431 -0.66817,0.0668 0.16704,1.73726 -0.4009,0.86862 -0.0668,1.23613 0.3675,2.67269 0.33408,2.53906 -0.36749,0.3675 0.0668,0.96885 0.4009,1.1693 -0.13364,1.03567 1.23612,6.88219 0.0334,1.63703 0.63477,1.23612 -0.0668,2.10475 0.3675,4.37654 0.36749,1.60361 0.33409,1.46998 -0.30068,2.10475 -0.23386,1.67044 0.83522,0.26727 0.43431,1.20271 -0.13363,0.46772 0.4009,0.46772 v 2.63929 l 0.46772,0.53454 0.10023,0.90203 1.03567,1.40317 -0.0334,1.43657 -0.13363,0.93544 0.46772,0.53454 -0.16705,0.60136 1.23613,1.30294 1.00226,2.27179 0.70158,3.60814 0.46772,3.44109 0.53454,1.50339 0.23386,1.43658 0.60136,2.23838 0.63476,1.9043 0.30068,2.77292 -0.0334,1.26953 0.73499,1.73725 1.93771,2.67269 0.26727,1.77066 v 1.43658 l -0.86863,1.03567 -0.90204,0.80181 0.0334,0.63476 0.70159,0.83522 1.33634,2.90656 -0.10022,2.50565 -0.53454,1.33634 -0.3675,1.46999 -0.23386,0.86862 -0.30067,0.56795 0.50112,1.10249 1.40317,1.9377 1.10249,1.73725 0.0334,1.26953 0.93545,1.00226 -0.26727,1.16931 -1.06908,0.70158 h -1.5368 l -3.80859,-0.13363 -3.37428,0.30068 -2.07134,0.10022 -0.96885,-0.66817 -0.86863,-1.36976 -0.30067,-1.80407 0.0334,-2.00452 0.73499,-0.93544 -0.26727,-1.70385 -1.16931,-0.70158 -1.40316,-1.26953 -0.50113,-2.00452 0.30068,-1.57021 0.70158,-1.26953 0.60136,-1.10249 -0.23386,-0.80181 -1.67044,-0.86862 -1.23612,-0.96885 -1.5368,-2.03793 -0.63477,-2.40543 -0.30067,-2.40542 -0.80181,-2.80634 -0.26727,-1.9377 -0.86863,-2.63929 -0.36749,-1.60361 0.0668,-3.17383 0.16705,-0.33409 0.46772,-2.53905 -0.83522,-1.16931 -0.66817,-0.83522 -0.83522,-1.9377 -1.5368,-4.47677 -0.93544,-2.53906 -0.56795,-2.27179 -0.7684,-3.00678 -0.26727,-1.87089 -0.56795,-1.26952 -0.56795,-1.80407 -0.43431,-1.23613 -0.4009,-2.07133 -0.50113,-1.70385 -1.00226,-3.0736 -1.00226,-2.77292 -0.56795,-2.50565 -0.56795,-1.63703 -0.56795,-1.67043 -0.56795,-1.9377 -0.26726,-1.10249 -0.23387,-0.96886 0.0334,-0.8018 -0.30068,-0.20046 -0.13363,1.00226 v 1.26954 3.97563 l -0.10023,3.74177 -0.0334,1.5368 -0.60136,1.06908 -0.0334,1.36976 0.20045,2.83974 0.10023,0.36749 0.43431,0.60136 -0.26727,1.67043 0.23386,2.6727 0.10023,4.07586 0.0668,1.80407 v 2.3052 l 0.4009,0.83521 -0.0668,1.77066 0.13364,1.26954 1.43657,2.10474 0.83522,2.03793 -0.20045,3.4411 0.26726,3.27405 0.53455,4.6104 0.30067,4.64381 0.7684,1.26953 0.40091,2.3052 -0.43432,1.73725 -0.0334,1.67043 0.8018,1.80407 1.23612,3.0736 -0.53453,1.33635 -0.90204,1.93771 -1.40316,1.9377 0.43431,2.40542 -0.0334,2.80633 -0.36749,2.00453 -0.46773,1.10248 -0.93544,1.03567 -2.00452,0.53454 -2.93997,0.13363 -2.13815,0.0668 -2.13816,-0.53454 -1.20271,-0.66817 -0.26727,-1.9377 0.60136,-1.73726 1.26953,-1.5368 0.4009,-1.67043 -0.93544,-2.47224 -1.26953,-2.73952 -0.53454,-1.33634 0.13363,-1.00226 1.26953,-0.46773 -1.73725,-1.46998 -0.60135,-1.5368 -0.40091,-2.20497 V 216.221 l 0.0668,-2.13816 0.33409,-1.40317 0.0668,-1.60361 -0.86862,-2.40543 -0.46773,-2.40542 -0.66817,-2.20498 -0.80181,-2.60588 -0.0668,-2.00452 -0.26728,-0.66817 -0.26726,-2.47224 0.0668,-1.5368 -1.67043,-2.60588 -0.20045,-1.87089 0.20045,-1.67043 0.13363,-1.5368 -0.53454,-2.33861 -0.66817,-3.40769 -0.13363,-1.87089 -1.20272,-3.54132 -0.46772,-4.6104 -0.13363,-1.53679 -0.33409,-3.60814 -0.53454,-3.74178 -0.33409,-3.40768 -0.60135,-3.00678 -0.33409,-2.2718 -0.73499,-3.20723 -0.60136,-2.20497 -0.46772,3.0736 -0.53454,2.07133 -0.46772,3.40769 -0.13364,2.93996 0.13364,3.87541 0.0668,5.54585 -0.20046,3.40768 -3.60813,2.6727 -2.338612,18.97613 -1.202714,9.55489 -0.200451,2.33861 -0.06682,1.46998 0.534538,1.67043 -0.200451,3.54133 -0.133636,1.60361 -0.668173,5.87993 -0.334087,4.74404 -0.200451,7.14946 -0.267271,4.07586 -1.469983,4.6104 z"
       id="path44" />
  </g>
</svg>
